<svg xmlns="http://www.w3.org/2000/svg" viewBox="0 0 1000 1000"><defs><style>.cls-1{fill:#c02c40;}.cls-2{fill:#fafbfb;}.cls-3{fill:#181818;}.cls-4{fill:#c12c41;}</style></defs><title>logo</title><g id="BG"><path class="cls-1" d="M983.09,500A481,481,0,0,1,877.57,801.37q-5.72,7.15-11.72,14.09C777.29,918.11,646.23,983.09,500,983.09s-277.29-65-365.85-167.63q-6-6.94-11.72-14.09A481,481,0,0,1,16.91,500C16.91,233.2,233.2,16.91,500,16.91S983.09,233.2,983.09,500Z"/></g><g id="user"><path id="body" class="cls-2" d="M500,983.09c-146.23,0-277.29-65-365.85-167.63C175.8,652.24,323.81,531.55,500,531.55"/><path id="head" class="cls-2" d="M500,468.84A182.09,182.09,0,0,1,317.91,286.75c0-100.56,81.53-182.08,182.09-182.08"/></g><g id="bot"><path id="body-2" data-name="body" class="cls-3" d="M500,531.55H798.48a79.09,79.09,0,0,1,79.09,79.09V801.37C789.06,912.13,652.82,983.09,500,983.09"/><path id="head-2" data-name="head" class="cls-3" d="M500,104.67H603a79.09,79.09,0,0,1,79.09,79.09v206A79.09,79.09,0,0,1,603,468.84H500"/><rect id="ear" class="cls-3" x="612.11" y="230.35" width="112.81" height="112.81" rx="26.84"/></g><g id="border"><path class="cls-4" d="M500,1000A499.73,499.73,0,0,1,121.35,826.5c-4.17-4.81-8.26-9.73-12.14-14.59A500,500,0,1,1,960.7,305.37a499.39,499.39,0,0,1-69.93,506.55c-3.86,4.85-7.95,9.77-12.13,14.6A499.74,499.74,0,0,1,500,1000Zm0-935C260.14,65,65,260.14,65,500c0,99.77,32.85,193.6,95,271.36,3.37,4.22,6.91,8.48,10.54,12.67a434.95,434.95,0,0,0,658.88,0c3.65-4.21,7.19-8.47,10.55-12.68,62.17-77.77,95-171.6,95-271.37C935,260.14,739.86,65,500,65Z"/></g></svg>